<svg width="12" height="12" viewBox="0 0 12 12" fill="none" xmlns="http://www.w3.org/2000/svg">
<path fill-rule="evenodd" clip-rule="evenodd" d="M8.24516 5.24691H6.74605V3.7478C6.74605 3.33554 6.40875 2.99824 5.9965 2.99824C5.58425 2.99824 5.24695 3.33554 5.24695 3.7478V5.24691H3.74784C3.33559 5.24691 2.99829 5.58422 2.99829 5.99647C2.99829 6.40873 3.33559 6.74603 3.74784 6.74603H5.24695V8.24515C5.24695 8.65741 5.58425 8.99471 5.9965 8.99471C6.40875 8.99471 6.74605 8.65741 6.74605 8.24515V6.74603H8.24516C8.65741 6.74603 8.99471 6.40873 8.99471 5.99647C8.99471 5.58422 8.65741 5.24691 8.24516 5.24691ZM5.99642 0C2.6834 0 0 2.68342 0 5.99647C0 9.30952 2.6834 11.9929 5.99642 11.9929C9.30945 11.9929 11.9928 9.30952 11.9928 5.99647C11.9928 2.68342 9.30945 0 5.99642 0ZM5.99686 10.4938C3.51584 10.4938 1.49954 8.47751 1.49954 5.99647C1.49954 3.51543 3.51584 1.49912 5.99686 1.49912C8.47788 1.49912 10.4942 3.51543 10.4942 5.99647C10.4942 8.47751 8.48537 10.4938 5.99686 10.4938Z" fill="#8F95B2"/>
</svg>
