<svg width="10" height="10" viewBox="0 0 10 10" fill="none" xmlns="http://www.w3.org/2000/svg">
<path d="M9.19195 0.5H3.70398C3.27278 0.5 2.91998 0.8375 2.91998 1.25C2.91998 1.6625 3.27278 2 3.70398 2H7.30252L0.803192 8.2175C0.654233 8.3525 0.567993 8.54 0.567993 8.75C0.567993 9.1625 0.920792 9.5 1.35199 9.5C1.57151 9.5 1.76751 9.4175 1.90863 9.2825L8.40796 3.0575V6.5C8.40796 6.9125 8.76075 7.25 9.19195 7.25C9.62315 7.25 9.97595 6.9125 9.97595 6.5V1.25C9.97595 0.8375 9.62315 0.5 9.19195 0.5Z" fill="#01FF39"/>
</svg>
