<svg width="15" height="12" viewBox="0 0 15 12" fill="none" xmlns="http://www.w3.org/2000/svg">
<path d="M1.01001 7L10.59 7L7.30001 10.29C7.12001 10.47 7.01001 10.72 7.01001 11C7.01001 11.55 7.46001 12 8.01001 12C8.29001 12 8.54001 11.89 8.72001 11.71L13.72 6.71C13.9 6.52 14.01 6.27 14.01 6C14.01 5.73 13.9 5.47 13.72 5.29L8.72001 0.289999C8.54001 0.109998 8.29001 -2.40741e-06 8.01001 -2.43189e-06C7.46001 -2.47997e-06 7.01001 0.449998 7.01001 0.999998C7.01001 1.28 7.12001 1.53 7.30001 1.71L10.59 5L1.00001 5C0.450008 5 8.20201e-06 5.45 8.15393e-06 6C8.10585e-06 6.55 0.460008 7 1.01001 7Z" fill="#0B1B53"/>
</svg>
