<svg width="16" height="16" viewBox="0 0 16 16" fill="none" xmlns="http://www.w3.org/2000/svg">
<path fill-rule="evenodd" clip-rule="evenodd" d="M9.76001 12.4142C8.63059 11.9154 8.78118 11.6142 8.74354 11.2001C8.73412 11.1436 8.73412 11.0872 8.73412 11.0213C9.12001 10.6731 9.44001 10.2025 9.64707 9.666C9.64707 9.666 9.65648 9.63776 9.65648 9.62835C9.70354 9.506 9.74118 9.38364 9.76942 9.26129C10.0329 9.20482 10.1835 8.92247 10.24 8.66835C10.2965 8.56482 10.4188 8.30129 10.3906 8.00953C10.3529 7.63306 10.2024 7.45423 10.0329 7.37894C10.0329 7.36011 10.0329 7.33188 10.0329 7.31306C10.0329 6.82364 9.98589 6.12717 9.90118 5.67541C9.88236 5.52482 9.85412 5.40247 9.81648 5.2707C9.64707 4.706 9.29883 4.20717 8.83765 3.84953C8.34824 3.48247 7.67059 3.29423 7.05883 3.29423C6.45648 3.29423 5.77883 3.48247 5.29883 3.84953C4.82824 4.20717 4.48001 4.71541 4.31059 5.2707C4.27295 5.39306 4.24471 5.52482 4.22589 5.64717C4.14118 6.10835 4.09412 6.81423 4.09412 7.29423C4.09412 7.31306 4.09412 7.33188 4.09412 7.3507C3.9153 7.41659 3.7553 7.59541 3.71765 7.9907C3.68942 8.28247 3.81177 8.546 3.86824 8.64953C3.92471 8.91306 4.08471 9.20482 4.34824 9.25188C4.38589 9.38364 4.42354 9.506 4.47059 9.61894C4.47059 9.62835 4.48001 9.63776 4.48001 9.63776V9.64717C4.68707 10.2025 5.01648 10.6825 5.41177 11.0213C5.41177 11.0778 5.40236 11.1342 5.40236 11.1813C5.36471 11.5954 5.47765 11.8966 4.34824 12.3954C3.21883 12.8942 1.5153 13.4307 1.16706 14.2307C0.81883 15.0589 0.960006 15.5295 0.960006 15.5295H13.1577C13.1577 15.5295 13.2988 15.0589 12.9506 14.2495C12.5929 13.4495 10.8894 12.9131 9.76001 12.4142ZM15.0494 2.35306H12.6212L12.8941 2.08011C13.0635 1.9107 13.1671 1.67541 13.1671 1.41188C13.1671 0.894233 12.7435 0.470703 12.2259 0.470703C11.9624 0.470703 11.7271 0.574233 11.5577 0.743644L9.6753 2.626C9.5153 2.79541 9.40236 3.0307 9.40236 3.29423C9.40236 3.55776 9.50589 3.79306 9.6753 3.96247L11.5577 5.84482C11.7365 6.01423 11.9718 6.11776 12.2259 6.11776C12.7435 6.11776 13.1671 5.69423 13.1671 5.17659C13.1671 4.91306 13.0635 4.67776 12.8941 4.50835L12.6212 4.23541H15.0494C15.5671 4.23541 15.9906 3.81188 15.9906 3.29423C15.9906 2.77659 15.5671 2.35306 15.0494 2.35306Z" fill="#8F95B2"/>
</svg>
