<svg width="16" height="10" viewBox="0 0 16 10" fill="none" xmlns="http://www.w3.org/2000/svg">
<path fill-rule="evenodd" clip-rule="evenodd" d="M8.0025 4.00268C7.45335 4.00268 7.00406 4.45385 7.00406 5.00528C7.00406 5.5567 7.45335 6.00787 8.0025 6.00787C8.55164 6.00787 9.00094 5.5567 9.00094 5.00528C9.00094 4.45385 8.55164 4.00268 8.0025 4.00268ZM15.99 4.9752C15.99 4.96517 15.99 4.96517 15.99 4.95515V4.94512C15.99 4.93509 15.99 4.93509 15.99 4.92507C15.99 4.91504 15.99 4.91504 15.99 4.90502V4.90502C15.97 4.76465 15.9101 4.64434 15.8203 4.54408C15.3111 3.87234 14.702 3.28081 14.083 2.73941C12.7551 1.56637 11.2374 0.583832 9.56006 0.192819C8.58159 -0.0478034 7.6131 -0.0578293 6.63463 0.132664C5.74602 0.313131 4.89735 0.674065 4.08861 1.12523C2.84056 1.83708 1.69236 2.80959 0.693916 3.90242C0.514197 4.11297 0.334477 4.31349 0.164743 4.53406C-0.0549142 4.82481 -0.0549142 5.17572 0.164743 5.46647C0.673947 6.13821 1.283 6.72974 1.90203 7.27114C3.22995 8.44418 4.74758 9.42672 6.42496 9.81773C7.39345 10.0483 8.37192 10.0584 9.35039 9.85784C10.239 9.67737 11.0877 9.31644 11.8964 8.86527C13.1445 8.15343 14.2927 7.18091 15.2911 6.08808C15.4708 5.88756 15.6605 5.67702 15.8303 5.45644C15.9201 5.35618 15.98 5.22585 16 5.09551V5.09551C16 5.08548 16 5.08548 16 5.07546C16 5.06543 16 5.06543 16 5.05541V5.04538C16 5.03535 16 5.03535 16 5.02533C16 5.0153 16 5.00528 16 4.99525C16 4.98522 15.99 4.98522 15.99 4.9752ZM8.0025 8.01306C6.34509 8.01306 5.00718 6.66958 5.00718 5.00528C5.00718 3.34097 6.34509 1.99749 8.0025 1.99749C9.65991 1.99749 10.9978 3.34097 10.9978 5.00528C10.9978 6.66958 9.65991 8.01306 8.0025 8.01306Z" fill="#3366FF"/>
</svg>
