<svg width="12" height="12" viewBox="0 0 12 12" fill="none" xmlns="http://www.w3.org/2000/svg">
<path fill-rule="evenodd" clip-rule="evenodd" d="M6 12C2.685 12 0 9.315 0 6C0 2.685 2.685 0 6 0C9.315 0 12 2.685 12 6C12 9.315 9.315 12 6 12ZM9 3.75C8.79 3.75 8.6025 3.8325 8.4675 3.9675L5.25 7.1925L3.5325 5.4675C3.3975 5.3325 3.21 5.25 3 5.25C2.5875 5.25 2.25 5.5875 2.25 6C2.25 6.21 2.3325 6.3975 2.4675 6.5325L4.7175 8.7825C4.8525 8.9175 5.04 9 5.25 9C5.46 9 5.6475 8.9175 5.7825 8.7825L9.5325 5.0325C9.6675 4.8975 9.75 4.71 9.75 4.5C9.75 4.0875 9.4125 3.75 9 3.75Z" fill="#8F95B2"/>
</svg>
