<svg width="12" height="12" viewBox="0 0 12 12" fill="none" xmlns="http://www.w3.org/2000/svg">
<path fill-rule="evenodd" clip-rule="evenodd" d="M7.31996 9.31061C6.4729 8.93649 6.58584 8.71061 6.5576 8.40002C6.55055 8.35767 6.55055 8.31531 6.55055 8.2659C6.83996 8.00473 7.07996 7.65179 7.23525 7.24943C7.23525 7.24943 7.24231 7.22826 7.24231 7.2212C7.27761 7.12943 7.30584 7.03767 7.32702 6.9459C7.52466 6.90355 7.63761 6.69179 7.67996 6.5012C7.72231 6.42355 7.81408 6.2259 7.7929 6.00708C7.76466 5.72473 7.65172 5.59061 7.52466 5.53414C7.52466 5.52002 7.52466 5.49884 7.52466 5.48473C7.52466 5.11767 7.48937 4.59531 7.42584 4.25649C7.41172 4.14355 7.39055 4.05179 7.36231 3.95296C7.23525 3.52943 6.97408 3.15531 6.62819 2.88708C6.26113 2.61179 5.7529 2.47061 5.29408 2.47061C4.84231 2.47061 4.33408 2.61179 3.97408 2.88708C3.62113 3.15531 3.35996 3.53649 3.2329 3.95296C3.20466 4.04473 3.18349 4.14355 3.16937 4.23531C3.10584 4.5812 3.07055 5.11061 3.07055 5.47061C3.07055 5.48473 3.07055 5.49884 3.07055 5.51296C2.93643 5.56237 2.81643 5.69649 2.78819 5.99296C2.76702 6.21179 2.85878 6.40943 2.90114 6.48708C2.94349 6.68473 3.06349 6.90355 3.26113 6.93884C3.28937 7.03767 3.31761 7.12943 3.3529 7.21414C3.3529 7.2212 3.35996 7.22826 3.35996 7.22826V7.23531C3.51525 7.65179 3.76231 8.01179 4.05878 8.2659C4.05878 8.30826 4.05172 8.35061 4.05172 8.3859C4.02349 8.69649 4.10819 8.92237 3.26113 9.29649C2.41408 9.67061 1.13643 10.073 0.875253 10.673C0.614076 11.2941 0.719959 11.6471 0.719959 11.6471H9.86819C9.86819 11.6471 9.97408 11.2941 9.7129 10.6871C9.44466 10.0871 8.16702 9.68473 7.31996 9.31061ZM11.287 1.76473H9.46583L9.67054 1.56003C9.79759 1.43297 9.87524 1.2565 9.87524 1.05885C9.87524 0.670613 9.55759 0.352966 9.16936 0.352966C8.97171 0.352966 8.79524 0.430613 8.66818 0.557672L7.25642 1.96944C7.13642 2.0965 7.05171 2.27297 7.05171 2.47061C7.05171 2.66826 7.12936 2.84473 7.25642 2.97179L8.66818 4.38355C8.8023 4.51061 8.97877 4.58826 9.16936 4.58826C9.55759 4.58826 9.87524 4.27061 9.87524 3.88238C9.87524 3.68473 9.79759 3.50826 9.67054 3.3812L9.46583 3.1765H11.287C11.6752 3.1765 11.9929 2.85885 11.9929 2.47061C11.9929 2.08238 11.6752 1.76473 11.287 1.76473Z" fill="#101840"/>
</svg>
