<svg width="12" height="12" viewBox="0 0 12 12" fill="none" xmlns="http://www.w3.org/2000/svg">
<path fill-rule="evenodd" clip-rule="evenodd" d="M10.0365 0C10.3206 0 10.5803 0.160502 10.7073 0.41459L12 3V11.25C12 11.6642 11.6642 12 11.25 12H0.75C0.335786 12 0 11.6642 0 11.25V3L1.29271 0.41459C1.41975 0.160502 1.67945 0 1.96353 0H10.0365ZM6 4.5C5.5875 4.5 5.25 4.8375 5.25 5.25V5.25V7.1925L5.0325 6.975L4.97152 6.91767C4.84347 6.81061 4.68 6.75 4.5 6.75C4.0875 6.75 3.75 7.0875 3.75 7.5C3.75 7.71 3.8325 7.8975 3.9675 8.0325V8.0325L5.4675 9.5325L5.53924 9.59549C5.66563 9.69271 5.825 9.75 6 9.75C6.21 9.75 6.3975 9.6675 6.5325 9.5325V9.5325L8.0325 8.0325L8.09549 7.96076C8.19271 7.83437 8.25 7.675 8.25 7.5C8.25 7.0875 7.9125 6.75 7.5 6.75C7.29 6.75 7.1025 6.8325 6.9675 6.9675V6.9675L6.75 7.1925V5.25L6.74493 5.16285C6.7014 4.79101 6.38304 4.5 6 4.5ZM9.75 1.5H2.25L1.5 3H10.5L9.75 1.5Z" fill="#101840"/>
</svg>
