<svg width="10" height="13" viewBox="0 0 10 13" fill="none" xmlns="http://www.w3.org/2000/svg">
<path fill-rule="evenodd" clip-rule="evenodd" d="M9.58117 3.73588H0.404699C0.207052 3.73588 0.0517578 3.89118 0.0517578 4.08882C0.0517578 4.28647 0.207052 4.44176 0.404699 4.44176H0.75764V11.5006C0.75764 11.8888 1.07529 12.2065 1.46352 12.2065H8.52235C8.91058 12.2065 9.22823 11.8888 9.22823 11.5006V4.44176H9.58117C9.77882 4.44176 9.93411 4.28647 9.93411 4.08882C9.93411 3.89118 9.77882 3.73588 9.58117 3.73588ZM3.58124 10.0888C3.58124 10.4771 3.26359 10.7947 2.87536 10.7947C2.48712 10.7947 2.16948 10.4771 2.16948 10.0888V5.85353C2.16948 5.46529 2.48712 5.14765 2.87536 5.14765C3.26359 5.14765 3.58124 5.46529 3.58124 5.85353V10.0888ZM5.69872 10.0888C5.69872 10.4771 5.38107 10.7947 4.99283 10.7947C4.6046 10.7947 4.28695 10.4771 4.28695 10.0888V5.85353C4.28695 5.46529 4.6046 5.14765 4.99283 5.14765C5.38107 5.14765 5.69872 5.46529 5.69872 5.85353V10.0888ZM7.81644 10.0888C7.81644 10.4771 7.49879 10.7947 7.11055 10.7947C6.72232 10.7947 6.40467 10.4771 6.40467 10.0888V5.85353C6.40467 5.46529 6.72232 5.14765 7.11055 5.14765C7.49879 5.14765 7.81644 5.46529 7.81644 5.85353V10.0888ZM9.22823 1.61824H6.4047C6.4047 1.23 6.08705 0.912354 5.69882 0.912354H4.28705C3.89882 0.912354 3.58117 1.23 3.58117 1.61824H0.75764C0.369405 1.61824 0.0517578 1.93588 0.0517578 2.32412V3.03H9.93411V2.32412C9.93411 1.93588 9.61646 1.61824 9.22823 1.61824Z" fill="#8F95B2"/>
</svg>
