<svg width="24" height="24" viewBox="0 0 24 24" fill="none" xmlns="http://www.w3.org/2000/svg">
<circle cx="12" cy="12" r="12" fill="#EBF0FF"/>
<path fill-rule="evenodd" clip-rule="evenodd" d="M13.0575 12L14.775 10.2825C14.9175 10.1475 15 9.96 15 9.75C15 9.3375 14.6625 9 14.25 9C14.04 9 13.8525 9.0825 13.7175 9.2175L12 10.9425L10.2825 9.2175C10.1475 9.0825 9.96 9 9.75 9C9.3375 9 9 9.3375 9 9.75C9 9.96 9.0825 10.1475 9.2175 10.2825L10.9425 12L9.225 13.7175C9.0825 13.8525 9 14.04 9 14.25C9 14.6625 9.3375 15 9.75 15C9.96 15 10.1475 14.9175 10.2825 14.7825L12 13.0575L13.7175 14.775C13.8525 14.9175 14.04 15 14.25 15C14.6625 15 15 14.6625 15 14.25C15 14.04 14.9175 13.8525 14.7825 13.7175L13.0575 12Z" fill="#474D66"/>
</svg>
