<svg width="32" height="32" viewBox="0 0 32 32" fill="none" xmlns="http://www.w3.org/2000/svg">
<path d="M0 3C0 1.34315 1.34315 0 3 0H29C30.6569 0 32 1.34315 32 3V29C32 30.6569 30.6569 32 29 32H3C1.34315 32 0 30.6569 0 29V3Z" fill="white"/>
<path fill-rule="evenodd" clip-rule="evenodd" d="M16 13.0225C15.1716 13.0225 14.5 12.3509 14.5 11.5225C14.5 10.694 15.1716 10.0225 16 10.0225C16.8284 10.0225 17.5 10.694 17.5 11.5225C17.5 12.3509 16.8284 13.0225 16 13.0225ZM16 22.0225C15.1716 22.0225 14.5 21.3509 14.5 20.5225C14.5 19.694 15.1716 19.0225 16 19.0225C16.8284 19.0225 17.5 19.694 17.5 20.5225C17.5 21.3509 16.8284 22.0225 16 22.0225ZM14.5 16.0225C14.5 16.8509 15.1716 17.5225 16 17.5225C16.8284 17.5225 17.5 16.8509 17.5 16.0225C17.5 15.194 16.8284 14.5225 16 14.5225C15.1716 14.5225 14.5 15.194 14.5 16.0225Z" fill="#474D66"/>
<path d="M3 1H29V-1H3V1ZM31 3V29H33V3H31ZM29 31H3V33H29V31ZM1 29V3H-1V29H1ZM3 31C1.89543 31 1 30.1046 1 29H-1C-1 31.2091 0.790861 33 3 33V31ZM31 29C31 30.1046 30.1046 31 29 31V33C31.2091 33 33 31.2091 33 29H31ZM29 1C30.1046 1 31 1.89543 31 3H33C33 0.790861 31.2091 -1 29 -1V1ZM3 -1C0.790861 -1 -1 0.790861 -1 3H1C1 1.89543 1.89543 1 3 1V-1Z" fill="#D8DAE5"/>
</svg>
