<svg width="17" height="17" viewBox="0 0 17 17" fill="none" xmlns="http://www.w3.org/2000/svg">
<path fill-rule="evenodd" clip-rule="evenodd" d="M16.9 13.41C16.84 13.35 13.53 11.41 13.42 11.36C13.31 11.31 13.2 11.28 13.1 11.28C12.95 11.28 12.76 11.39 12.53 11.6C12.3 11.82 11.59 12.79 11.38 13C11.17 13.22 11 13.32 10.86 13.32C10.79 13.32 10.71 13.3 10.61 13.26C10.51 13.22 9.45 12.68 7.25 10.74C5.05 8.80997 4.76 7.53997 4.75 7.18997C4.75 7.04997 4.86 6.87997 5.07 6.66997C5.29 6.45997 5.52 6.25997 5.77 6.06997C6.02 5.87997 6.26 5.66997 6.47 5.44997C6.69 5.21997 6.79 5.02997 6.79 4.87997C6.79 4.76997 6.76 4.66997 6.71 4.55997C6.66 4.45997 4.66 1.14997 4.59 1.07997C4.44 0.929972 3.85 0.999972 3.55 1.15997C1.16 2.45997 0.97 4.19997 1 4.88997C1.04 5.59997 1.49 9.34997 5.16 12.84C9.72 17.17 12.89 17 13.1 17C13.79 17 15.92 16.62 16.82 14.45C16.95 14.13 17.07 13.58 16.9 13.41Z" fill="#8F95B2"/>
</svg>
