<svg width="16" height="16" viewBox="0 0 16 16" fill="none" xmlns="http://www.w3.org/2000/svg">
<path fill-rule="evenodd" clip-rule="evenodd" d="M15.5765 13.5812L13.0635 11.0588C13.7224 10.0329 14.1082 8.81882 14.1082 7.52C14.1082 3.87765 11.1624 0.931763 7.52 0.931763C3.87765 0.931763 0.931763 3.87765 0.931763 7.52C0.931763 11.1624 3.87765 14.1082 7.52 14.1082C8.82823 14.1082 10.0424 13.7129 11.0588 13.0635L13.5812 15.5765C13.8353 15.8306 14.1929 15.9906 14.5788 15.9906C15.36 15.9906 15.9906 15.36 15.9906 14.5788C15.9906 14.1929 15.8306 13.8353 15.5765 13.5812ZM7.52 12.2259C4.92235 12.2259 2.81412 10.1176 2.81412 7.52C2.81412 4.92235 4.92235 2.81412 7.52 2.81412C10.1176 2.81412 12.2259 4.92235 12.2259 7.52C12.2259 10.1176 10.1176 12.2259 7.52 12.2259Z" fill="#8F95B2"/>
</svg>
