<svg width="10" height="10" viewBox="0 0 10 10" fill="none" xmlns="http://www.w3.org/2000/svg">
<path fill-rule="evenodd" clip-rule="evenodd" d="M0 5C0 7.7625 2.2375 10 5 10C7.7625 10 10 7.7625 10 5C10 2.2375 7.7625 0 5 0C2.2375 0 0 2.2375 0 5ZM7.05625 3.30625C7.16875 3.19375 7.325 3.125 7.5 3.125C7.84375 3.125 8.125 3.40625 8.125 3.75C8.125 3.925 8.05625 4.08125 7.94375 4.19375L4.81875 7.31875C4.70625 7.43125 4.55 7.5 4.375 7.5C4.2 7.5 4.04375 7.43125 3.93125 7.31875L2.05625 5.44375C1.94375 5.33125 1.875 5.175 1.875 5C1.875 4.65625 2.15625 4.375 2.5 4.375C2.675 4.375 2.83125 4.44375 2.94375 4.55625L4.375 5.99375L7.05625 3.30625Z" fill="#2952CC"/>
</svg>
