<svg width="47" height="32" viewBox="0 0 47 32" fill="none" xmlns="http://www.w3.org/2000/svg">
<path d="M16.9434 15.7227C16.9434 15.3262 17.0687 15.0003 17.3193 14.7451C17.5745 14.4899 17.9118 14.3623 18.3311 14.3623C18.7458 14.3623 19.083 14.4876 19.3428 14.7383C19.6025 14.9844 19.7324 15.3193 19.7324 15.7432V15.9961C19.7324 16.3926 19.6071 16.7161 19.3564 16.9668C19.1058 17.2174 18.7663 17.3428 18.3379 17.3428C17.9141 17.3428 17.5745 17.2174 17.3193 16.9668C17.0687 16.7116 16.9434 16.3835 16.9434 15.9824V15.7227ZM21.6602 15.7227C21.6602 15.3262 21.7855 15.0003 22.0361 14.7451C22.2913 14.4899 22.6286 14.3623 23.0479 14.3623C23.4626 14.3623 23.7998 14.4876 24.0596 14.7383C24.3193 14.9844 24.4492 15.3193 24.4492 15.7432V15.9961C24.4492 16.3926 24.3239 16.7161 24.0732 16.9668C23.8226 17.2174 23.4831 17.3428 23.0547 17.3428C22.6309 17.3428 22.2913 17.2174 22.0361 16.9668C21.7855 16.7116 21.6602 16.3835 21.6602 15.9824V15.7227ZM26.377 15.7227C26.377 15.3262 26.5023 15.0003 26.7529 14.7451C27.0081 14.4899 27.3454 14.3623 27.7646 14.3623C28.1794 14.3623 28.5166 14.4876 28.7764 14.7383C29.0361 14.9844 29.166 15.3193 29.166 15.7432V15.9961C29.166 16.3926 29.0407 16.7161 28.79 16.9668C28.5394 17.2174 28.1999 17.3428 27.7715 17.3428C27.3477 17.3428 27.0081 17.2174 26.7529 16.9668C26.5023 16.7116 26.377 16.3835 26.377 15.9824V15.7227Z" fill="#727682"/>
<rect x="0.5" y="0.5" width="46" height="31" rx="7.5" stroke="#727682"/>
</svg>
