<svg width="10" height="10" viewBox="0 0 10 10" fill="none" xmlns="http://www.w3.org/2000/svg">
<path fill-rule="evenodd" clip-rule="evenodd" d="M9.90324 8.4375L9.90948 8.43125L5.53721 0.93125L5.53097 0.9375C5.42479 0.75 5.23116 0.625 5.00005 0.625C4.76895 0.625 4.58156 0.75 4.46913 0.9375L4.46289 0.93125L0.0906192 8.43125L0.0968653 8.4375C0.0406504 8.53125 0.00317383 8.63125 0.00317383 8.75C0.00317383 9.09375 0.284248 9.375 0.627783 9.375H9.37232C9.71585 9.375 9.99693 9.09375 9.99693 8.75C9.99693 8.63125 9.95945 8.53125 9.90324 8.4375ZM5.62449 8.11875H4.37527V6.86875H5.62449V8.11875ZM4.37527 6.24375H5.62449V3.11875H4.37527V6.24375Z" fill="#FFB020"/>
</svg>
